<mxfile host="65bd71144e">
    <diagram id="p3EOpmKThQrRj2dp95-X" name="ページ1">
        <mxGraphModel dx="835" dy="871" grid="1" gridSize="10" guides="1" tooltips="1" connect="1" arrows="1" fold="1" page="1" pageScale="1" pageWidth="827" pageHeight="1169" math="0" shadow="0">
            <root>
                <mxCell id="0"/>
                <mxCell id="1" parent="0"/>
                <mxCell id="15" value="" style="edgeStyle=none;html=1;endArrow=classic;endFill=1;startArrow=classic;startFill=1;" edge="1" parent="1" source="3" target="7">
                    <mxGeometry relative="1" as="geometry"/>
                </mxCell>
                <mxCell id="39" value="開始押下" style="edgeLabel;html=1;align=center;verticalAlign=middle;resizable=0;points=[];" vertex="1" connectable="0" parent="15">
                    <mxGeometry x="-0.35" y="1" relative="1" as="geometry">
                        <mxPoint x="-14" y="-1" as="offset"/>
                    </mxGeometry>
                </mxCell>
                <mxCell id="3" value="開始状態登録API" style="rounded=0;whiteSpace=wrap;html=1;" vertex="1" parent="1">
                    <mxGeometry x="270" y="90" width="120" height="60" as="geometry"/>
                </mxCell>
                <mxCell id="7" value="ポモドーロタイマ&lt;br style=&quot;border-color: var(--border-color);&quot;&gt;画面" style="rounded=1;whiteSpace=wrap;html=1;" vertex="1" parent="1">
                    <mxGeometry x="70" y="90" width="120" height="60" as="geometry"/>
                </mxCell>
                <mxCell id="9" value="タイマー情報" style="shape=cylinder3;whiteSpace=wrap;html=1;boundedLbl=1;backgroundOutline=1;size=15;" vertex="1" parent="1">
                    <mxGeometry x="730" y="70" width="60" height="80" as="geometry"/>
                </mxCell>
                <mxCell id="12" value="作業時間：25分&lt;br&gt;休憩時間：5分&lt;br&gt;セット数：3回" style="shape=callout;whiteSpace=wrap;html=1;perimeter=calloutPerimeter;" vertex="1" parent="1">
                    <mxGeometry x="180" y="20" width="120" height="80" as="geometry"/>
                </mxCell>
                <mxCell id="13" value="停止状態更新API" style="rounded=0;whiteSpace=wrap;html=1;" vertex="1" parent="1">
                    <mxGeometry x="430" y="254.35" width="120" height="60" as="geometry"/>
                </mxCell>
                <mxCell id="14" value="" style="endArrow=classic;html=1;endFill=1;exitX=0.5;exitY=1;exitDx=0;exitDy=0;startArrow=classic;startFill=1;" edge="1" parent="1" source="7" target="13">
                    <mxGeometry width="50" height="50" relative="1" as="geometry">
                        <mxPoint x="190" y="224.35" as="sourcePoint"/>
                        <mxPoint x="310" y="204.35" as="targetPoint"/>
                        <Array as="points">
                            <mxPoint x="190" y="284"/>
                        </Array>
                    </mxGeometry>
                </mxCell>
                <mxCell id="40" value="一時停止押下" style="edgeLabel;html=1;align=center;verticalAlign=middle;resizable=0;points=[];" vertex="1" connectable="0" parent="14">
                    <mxGeometry x="-0.2704" y="2" relative="1" as="geometry">
                        <mxPoint as="offset"/>
                    </mxGeometry>
                </mxCell>
                <mxCell id="16" value="" style="endArrow=classic;html=1;entryX=0;entryY=0;entryDx=0;entryDy=52.5;entryPerimeter=0;" edge="1" parent="1" target="9">
                    <mxGeometry width="50" height="50" relative="1" as="geometry">
                        <mxPoint x="390" y="119.5" as="sourcePoint"/>
                        <mxPoint x="470" y="120" as="targetPoint"/>
                    </mxGeometry>
                </mxCell>
                <mxCell id="17" value="" style="endArrow=classic;html=1;entryX=0.75;entryY=0;entryDx=0;entryDy=0;startArrow=classic;startFill=1;exitX=0.145;exitY=1;exitDx=0;exitDy=-4.35;exitPerimeter=0;" edge="1" parent="1" source="9" target="13">
                    <mxGeometry width="50" height="50" relative="1" as="geometry">
                        <mxPoint x="520" y="223" as="sourcePoint"/>
                        <mxPoint x="600" y="223.35" as="targetPoint"/>
                    </mxGeometry>
                </mxCell>
                <mxCell id="37" value="再開状態更新API" style="rounded=0;whiteSpace=wrap;html=1;" vertex="1" parent="1">
                    <mxGeometry x="550" y="334.35" width="120" height="60" as="geometry"/>
                </mxCell>
                <mxCell id="41" value="" style="endArrow=classic;html=1;endFill=1;exitX=0.25;exitY=1;exitDx=0;exitDy=0;startArrow=classic;startFill=1;" edge="1" parent="1" source="7" target="37">
                    <mxGeometry width="50" height="50" relative="1" as="geometry">
                        <mxPoint x="150" y="224.35" as="sourcePoint"/>
                        <mxPoint x="390" y="284.35" as="targetPoint"/>
                        <Array as="points">
                            <mxPoint x="190" y="364.35"/>
                        </Array>
                    </mxGeometry>
                </mxCell>
                <mxCell id="42" value="再開押下" style="edgeLabel;html=1;align=center;verticalAlign=middle;resizable=0;points=[];" vertex="1" connectable="0" parent="41">
                    <mxGeometry x="-0.2704" y="2" relative="1" as="geometry">
                        <mxPoint as="offset"/>
                    </mxGeometry>
                </mxCell>
                <mxCell id="43" value="タイマーID" style="shape=callout;whiteSpace=wrap;html=1;perimeter=calloutPerimeter;position2=0.5;size=10;position=0.4;" vertex="1" parent="1">
                    <mxGeometry x="310" y="244.35" width="80" height="40" as="geometry"/>
                </mxCell>
                <mxCell id="45" value="タイマー情報" style="swimlane;fontStyle=0;childLayout=stackLayout;horizontal=1;startSize=30;horizontalStack=0;resizeParent=1;resizeParentMax=0;resizeLast=0;collapsible=1;marginBottom=0;whiteSpace=wrap;html=1;" vertex="1" parent="1">
                    <mxGeometry x="690" width="140" height="60" as="geometry"/>
                </mxCell>
                <mxCell id="46" value="PK タイマーID" style="text;strokeColor=none;fillColor=none;align=left;verticalAlign=middle;spacingLeft=4;spacingRight=4;overflow=hidden;points=[[0,0.5],[1,0.5]];portConstraint=eastwest;rotatable=0;whiteSpace=wrap;html=1;" vertex="1" parent="45">
                    <mxGeometry y="30" width="140" height="30" as="geometry"/>
                </mxCell>
                <mxCell id="49" value="タイマーID" style="shape=callout;whiteSpace=wrap;html=1;perimeter=calloutPerimeter;position2=0.5;size=10;position=0.4;" vertex="1" parent="1">
                    <mxGeometry x="350" y="324.35" width="80" height="40" as="geometry"/>
                </mxCell>
                <mxCell id="50" value="" style="endArrow=classic;html=1;startArrow=classic;startFill=1;exitX=0.145;exitY=1;exitDx=0;exitDy=-4.35;exitPerimeter=0;" edge="1" parent="1" source="9" target="37">
                    <mxGeometry width="50" height="50" relative="1" as="geometry">
                        <mxPoint x="730" y="150" as="sourcePoint"/>
                        <mxPoint x="530" y="264.35" as="targetPoint"/>
                    </mxGeometry>
                </mxCell>
                <mxCell id="51" value="完了状態更新API" style="rounded=0;whiteSpace=wrap;html=1;" vertex="1" parent="1">
                    <mxGeometry x="700" y="404.35" width="120" height="60" as="geometry"/>
                </mxCell>
                <mxCell id="52" value="" style="endArrow=classic;html=1;endFill=1;exitX=0;exitY=1;exitDx=0;exitDy=0;startArrow=none;startFill=0;" edge="1" parent="1" source="7" target="51">
                    <mxGeometry width="50" height="50" relative="1" as="geometry">
                        <mxPoint x="110" y="224.35" as="sourcePoint"/>
                        <mxPoint x="510" y="364.35" as="targetPoint"/>
                        <Array as="points">
                            <mxPoint x="140" y="434.35"/>
                        </Array>
                    </mxGeometry>
                </mxCell>
                <mxCell id="53" value="完了押下" style="edgeLabel;html=1;align=center;verticalAlign=middle;resizable=0;points=[];" vertex="1" connectable="0" parent="52">
                    <mxGeometry x="-0.2704" y="2" relative="1" as="geometry">
                        <mxPoint as="offset"/>
                    </mxGeometry>
                </mxCell>
                <mxCell id="54" value="タイマーID" style="shape=callout;whiteSpace=wrap;html=1;perimeter=calloutPerimeter;position2=0.5;size=10;position=0.4;" vertex="1" parent="1">
                    <mxGeometry x="430" y="394.35" width="80" height="40" as="geometry"/>
                </mxCell>
                <mxCell id="57" value="" style="endArrow=classic;html=1;startArrow=classic;startFill=1;exitX=0.5;exitY=1;exitDx=0;exitDy=0;exitPerimeter=0;" edge="1" parent="1" source="9" target="51">
                    <mxGeometry width="50" height="50" relative="1" as="geometry">
                        <mxPoint x="740" y="150" as="sourcePoint"/>
                        <mxPoint x="647.8004849324559" y="355" as="targetPoint"/>
                        <Array as="points"/>
                    </mxGeometry>
                </mxCell>
                <mxCell id="59" value="状態取得API" style="rounded=0;whiteSpace=wrap;html=1;" vertex="1" parent="1">
                    <mxGeometry x="390" y="170" width="120" height="60" as="geometry"/>
                </mxCell>
                <mxCell id="60" value="" style="endArrow=classic;html=1;endFill=1;exitX=0.75;exitY=1;exitDx=0;exitDy=0;startArrow=classic;startFill=1;entryX=-0.012;entryY=0.63;entryDx=0;entryDy=0;entryPerimeter=0;" edge="1" parent="1" source="7" target="59">
                    <mxGeometry width="50" height="50" relative="1" as="geometry">
                        <mxPoint x="160" y="245" as="sourcePoint"/>
                        <mxPoint x="740" y="455" as="targetPoint"/>
                        <Array as="points">
                            <mxPoint x="190" y="210"/>
                        </Array>
                    </mxGeometry>
                </mxCell>
                <mxCell id="61" value="一定間隔で取得" style="edgeLabel;html=1;align=center;verticalAlign=middle;resizable=0;points=[];" vertex="1" connectable="0" parent="60">
                    <mxGeometry x="-0.2704" y="2" relative="1" as="geometry">
                        <mxPoint as="offset"/>
                    </mxGeometry>
                </mxCell>
                <mxCell id="62" value="" style="endArrow=classic;html=1;entryX=0;entryY=1;entryDx=0;entryDy=-15;entryPerimeter=0;" edge="1" parent="1" source="59" target="9">
                    <mxGeometry width="50" height="50" relative="1" as="geometry">
                        <mxPoint x="400" y="129.5" as="sourcePoint"/>
                        <mxPoint x="480" y="129.5" as="targetPoint"/>
                    </mxGeometry>
                </mxCell>
            </root>
        </mxGraphModel>
    </diagram>
</mxfile>